<svg xmlns="http://www.w3.org/2000/svg" viewBox="473 158 720 357" width="640" height="277"><path id="path_a7a3bcfd-7f15-4fdb-02de-2396ab337fb9" d="M5.57,14.00 Q5.22,29.52 5.05,44.32 T4.76,69.44 4.55,89.89 4.40,109.79 4.38,126.87 4.61,139.88 4.74,153.18 4.73,167.74 4.98,179.39 5.55,190.11 6.20,200.39 7.08,210.64 8.19,223.13 9.69,235.61 12.66,247.69 22.28,257.28 73.89,263.87 211.67,262.13 375.65,251.03 490.58,240.96 562.23,235.32 602.20,232.69 621.20,231.39 631.86,230.28 637.54,229.58 639.10,229.52 640.41,229.78 641.62,230.35 642.66,231.19 643.46,232.25 643.99,233.48 644.21,234.79 644.11,236.12 643.69,237.39 642.98,238.52 642.02,239.45 640.87,240.12 639.59,240.50 635.89,237.56 629.62,225.22 618.37,186.02 606.39,137.02 600.21,100.21 596.49,68.96 594.04,48.00 592.15,36.05 589.49,26.64 586.70,17.51 554.14,12.90 484.11,10.39 395.15,7.58 304.87,7.37 234.58,8.32 181.98,9.22 146.44,10.11 125.36,11.06 110.19,12.34 97.49,13.97 85.80,15.71 74.54,17.45 62.01,19.26 46.79,20.98 34.13,22.23 24.06,23.04 12.66,24.16 3.41,24.65 -0.28,23.96 -2.06,22.92 -3.42,21.37 -4.21,19.46 -4.35,17.40 -3.83,15.40 -2.69,13.68 -1.07,12.41 0.88,11.72 2.94,11.69 4.91,12.32 6.57,13.55 7.75,15.24 8.33,17.22 8.25,19.28 7.51,21.21 6.20,22.80 4.44,23.89 2.43,24.36 0.38,24.17 -1.50,23.33 -3.02,21.93 -4.01,20.12 -4.38,18.09 -4.07,16.05 -3.13,14.21 -1.65,12.77 0.21,11.88 2.26,11.63 3.30,11.67 6.88,12.14 14.68,12.43 23.57,12.27 33.29,12.15 45.56,11.20 60.59,9.11 73.21,7.35 84.61,6.13 96.48,4.95 109.46,3.75 124.92,2.44 146.17,1.35 181.79,0.16 234.42,-1.13 304.84,-2.63 395.46,-3.19 484.56,-1.42 552.56,0.54 587.75,1.65 595.90,7.51 598.75,16.74 599.93,25.42 601.26,34.79 602.65,46.96 605.17,67.90 609.11,98.68 615.55,134.80 627.85,182.97 637.24,220.92 639.10,229.52 640.41,229.78 641.62,230.35 642.65,231.19 643.46,232.25 643.99,233.48 644.21,234.79 644.11,236.12 643.69,237.39 642.98,238.52 642.02,239.45 640.87,240.12 639.59,240.50 638.03,240.55 632.37,240.34 621.75,240.35 602.79,241.40 562.95,244.30 491.42,250.32 376.36,260.92 211.57,272.76 70.99,274.93 14.19,266.36 1.72,256.76 -1.09,248.33 -3.43,237.52 -5.64,224.49 -6.51,211.28 -6.20,200.39 -5.55,190.11 -4.98,179.39 -4.73,167.74 -4.74,153.18 -4.61,139.88 -4.38,126.87 -4.40,109.79 -4.55,89.89 -4.76,69.44 -5.05,44.32 -5.39,21.76 -5.49,13.33 -5.17,12.04 -4.55,10.86 -3.67,9.86 -2.57,9.10 -1.32,8.63 0.00,8.47 1.32,8.63 2.57,9.10 3.67,9.86 4.55,10.86 5.17,12.04 5.49,13.33 Z" transform="translate(513, 198)"/></svg>