<svg xmlns="http://www.w3.org/2000/svg" viewBox="545.23 170.03 375.28 354.88" width="169.95" height="184.85"><path d="M72.04,2.81 Q69.64,17.17 67.58,29.39 T63.74,53.11 59.46,83.26 52.97,124.33 45.56,163.18 36.90,200.19 26.28,240.13 17.74,271.43 12.10,293.85 8.08,311.40 9.36,322.00 18.30,325.25 36.21,324.19 58.21,322.59 84.60,320.56 120.38,318.61 154.63,317.55 187.61,317.13 224.70,317.56 256.09,318.92 278.20,320.96 295.57,323.87 312.37,328.33 330.04,334.62 343.60,339.63 348.38,336.82 348.14,325.25 347.77,311.38 347.49,295.43 347.08,274.60 347.02,250.10 347.65,227.49 348.56,205.25 349.27,183.21 349.61,162.38 349.77,139.17 350.15,119.16 351.19,100.77 352.47,82.87 354.76,65.04 358.67,45.73 362.17,30.55 363.59,19.11 358.22,14.23 348.04,14.54 331.34,12.44 310.18,9.33 290.06,7.10 269.93,6.01 249.34,5.72 229.38,5.80 210.54,6.07 190.04,5.85 173.17,5.31 161.16,5.09 149.55,5.14 136.59,5.16 123.89,5.23 109.77,5.77 97.37,6.85 92.02,7.47 89.95,7.14 88.10,6.16 86.65,4.65 85.77,2.75 85.54,0.67 85.98,-1.38 87.06,-3.18 88.65,-4.54 90.59,-5.32 92.68,-5.44 94.70,-4.88 96.44,-3.71 97.71,-2.05 98.38,-0.06 98.39,2.03 97.73,4.02 96.46,5.69 94.73,6.87 92.72,7.43 90.63,7.32 88.68,6.55 87.08,5.20 85.99,3.41 85.54,1.37 85.76,-0.72 86.63,-2.62 88.07,-4.14 89.92,-5.13 90.92,-5.47 94.23,-5.82 103.52,-5.62 113.70,-5.17 123.92,-5.17 136.67,-5.01 149.76,-4.79 161.57,-4.27 173.53,-3.39 190.09,-2.68 210.35,-2.67 229.24,-3.21 249.35,-3.68 270.27,-3.92 291.00,-3.53 311.56,-2.28 332.62,-0.38 351.32,1.46 362.65,3.00 370.69,8.68 373.23,20.14 370.44,32.58 366.65,47.35 362.88,66.03 360.62,83.47 359.33,101.21 358.36,119.32 358.07,139.21 358.01,162.49 357.83,183.43 357.32,205.55 356.71,227.68 356.48,249.95 357.09,274.22 358.27,295.09 359.03,310.95 359.73,324.60 359.19,339.49 351.76,348.42 340.58,347.66 327.32,342.25 310.30,336.20 294.19,331.91 277.42,329.10 255.72,327.16 224.62,325.91 187.75,325.61 154.92,326.20 120.93,327.51 85.41,329.78 59.06,332.28 36.78,334.56 16.79,335.87 3.51,331.01 -1.76,321.32 0.01,309.56 4.21,291.89 9.84,269.30 18.30,238.01 28.76,198.32 37.23,161.59 44.41,123.02 50.63,82.04 54.59,51.72 57.97,27.87 60.86,8.39 62.13,0.60 62.61,-0.52 63.34,-1.50 64.28,-2.27 65.39,-2.80 66.58,-3.04 67.80,-3.00 68.97,-2.66 70.03,-2.05 70.91,-1.21 71.57,-0.18 71.96,0.98 72.06,2.19 Z" transform="translate(547, 176)"></path></svg>